<svg xmlns="http://www.w3.org/2000/svg" class="cwl-workflow IywXuU __plugin-port-drag __plugin-validate __plugin-selection __plugin-update" ct-click="" tabindex="-1" ct-drop-enabled="" ct-drop-zones="graph-editor">
            <rect x="0" y="0" width="100%" height="100%" class="pan-handle" transform="matrix(1,0,0,1,0,0)" style="fill:rgb(48, 48, 48); stroke:none; stroke-width:1px; "/>
            <g class="workflow" transform="matrix(1 0 0 1 568.26 217.469)">
            <g tabindex="-1" class="edge " data-source-port="data_matrix" data-destination-port="data_matrix" data-source-node="data_matrix" data-source-connection="out/data_matrix/data_matrix" data-destination-connection="in/cosifer/data_matrix" data-destination-node="cosifer">
                <path class="sub-edge outer" d="M 37 429.0625 C 71.6971492767334 429.0625 71.6971492767334 233.81053924560547 106.3942985534668 233.81053924560547" style="fill:none; stroke:rgb(48, 48, 48); stroke-width:7px; "/>
                <path class="sub-edge inner" d="M 37 429.0625 C 71.6971492767334 429.0625 71.6971492767334 233.81053924560547 106.3942985534668 233.81053924560547" style="fill:none; stroke:rgb(154, 154, 154); stroke-width:2px; "/>
            </g>
        
            <g tabindex="-1" class="edge " data-source-port="separator" data-destination-port="separator" data-source-node="separator" data-source-connection="out/separator/separator" data-destination-connection="in/cosifer/separator" data-destination-node="cosifer">
                <path class="sub-edge outer" d="M 37 0 C 71.6971492767334 0 71.6971492767334 139.25196075439453 106.3942985534668 139.25196075439453" style="fill:none; stroke:rgb(48, 48, 48); stroke-width:7px; "/>
                <path class="sub-edge inner" d="M 37 0 C 71.6971492767334 0 71.6971492767334 139.25196075439453 106.3942985534668 139.25196075439453" style="fill:none; stroke:rgb(154, 154, 154); stroke-width:2px; "/>
            </g>
        
            <g tabindex="-1" class="edge " data-source-port="index_col" data-destination-port="index_col" data-source-node="index_col" data-source-connection="out/index_col/index_col" data-destination-connection="in/cosifer/index_col" data-destination-node="cosifer">
                <path class="sub-edge outer" d="M 37 214.53125 C 61.5 214.53125 61.5 186.53125 86 186.53125" style="fill:none; stroke:rgb(48, 48, 48); stroke-width:7px; "/>
                <path class="sub-edge inner" d="M 37 214.53125 C 61.5 214.53125 61.5 186.53125 86 186.53125" style="fill:none; stroke:rgb(154, 154, 154); stroke-width:2px; "/>
            </g>
        
            <g tabindex="-1" class="edge " data-source-port="gmt_filepath" data-destination-port="gmt_filepath" data-source-node="gmt_filepath" data-source-connection="out/gmt_filepath/gmt_filepath" data-destination-connection="in/cosifer/gmt_filepath" data-destination-node="cosifer">
                <path class="sub-edge outer" d="M 37 321.796875 C 64.1579761505127 321.796875 64.1579761505127 212.27643013000488 91.31595230102539 212.27643013000488" style="fill:none; stroke:rgb(48, 48, 48); stroke-width:7px; "/>
                <path class="sub-edge inner" d="M 37 321.796875 C 64.1579761505127 321.796875 64.1579761505127 212.27643013000488 91.31595230102539 212.27643013000488" style="fill:none; stroke:rgb(154, 154, 154); stroke-width:2px; "/>
            </g>
        
            <g tabindex="-1" class="edge " data-source-port="outdir" data-destination-port="outdir" data-source-node="outdir" data-source-connection="out/outdir/outdir" data-destination-connection="in/cosifer/outdir" data-destination-node="cosifer">
                <path class="sub-edge outer" d="M 37 107.265625 C 64.1579761505127 107.265625 64.1579761505127 160.78606986999512 91.31595230102539 160.78606986999512" style="fill:none; stroke:rgb(48, 48, 48); stroke-width:7px; "/>
                <path class="sub-edge inner" d="M 37 107.265625 C 64.1579761505127 107.265625 64.1579761505127 160.78606986999512 91.31595230102539 160.78606986999512" style="fill:none; stroke:rgb(154, 154, 154); stroke-width:2px; "/>
            </g>
        
            <g tabindex="-1" class="edge " data-source-port="resdir" data-destination-port="resdir" data-source-node="cosifer" data-source-connection="out/cosifer/resdir" data-destination-connection="in/resdir/resdir" data-destination-node="resdir">
                <path class="sub-edge outer" d="M 216 186.53125 C 286.8420104980469 186.53125 286.8420104980469 214.53125 357.68402099609375 214.53125" style="fill:none; stroke:rgb(48, 48, 48); stroke-width:7px; "/>
                <path class="sub-edge inner" d="M 216 186.53125 C 286.8420104980469 186.53125 286.8420104980469 214.53125 357.68402099609375 214.53125" style="fill:none; stroke:rgb(154, 154, 154); stroke-width:2px; "/>
            </g>
        
            
        
            
        
            
        
            
        
            
        
            
        
            
        
            
        
            
        
            
        
            
        
            
        
            
        
            
        
            
        
            
        
            
        
            
        
            
        <g tabindex="-1" class="node input type-File " data-connection-id="out/data_matrix/data_matrix" transform="matrix(1, 0, 0, 1, 0, 429.0625)" data-id="data_matrix">
               
                <g class="core" transform="matrix(1, 0, 0, 1, 0, 0)">
                    <circle cx="0" cy="0" r="37" class="outer" style="fill:rgb(48, 48, 48); stroke:rgb(154, 154, 154); stroke-width:2px; "/>
                    <circle cx="0" cy="0" r="27.75" class="inner" style="fill:rgb(195, 195, 195); stroke:none; stroke-width:1px; "/>
                    
                    <svg class="node-icon" xmlns="http://www.w3.org/2000/svg" viewBox="0 0 499 462.86" y="-10" x="-11" width="20" height="20"><title>file_input</title><path d="M386.06,0H175V58.29l50,50V50H337.81V163.38h25l86.19.24V412.86H225V353.71l-50,50v59.15H499V112.94Zm1.75,113.45v-41l41.1,41.1Z" style="fill:rgb(48, 48, 48); stroke:rgb(48, 48, 48); stroke-width:3px; "/><polygon points="387.81 1.06 387.81 1.75 387.12 1.06 387.81 1.06" style="stroke:rgb(48, 48, 48); fill:rgb(48, 48, 48); "/><polygon points="290.36 231 176.68 344.68 141.32 309.32 194.64 256 0 256 0 206 194.64 206 142.32 153.68 177.68 118.32 290.36 231" style="stroke:rgb(48, 48, 48); fill:rgb(48, 48, 48); "/></svg>
                </g>
                
                <text transform="matrix(1 0 0 1 0 67)" class="title label" style="fill:rgb(255, 255, 255); font-size:13px; text-anchor:middle; font-family:sans-serif; ">data_matrix</text>
                
                
                
            <g class="port output-port" transform="matrix(1, 0, 0, 1, 37, 0)" data-connection-id="out/data_matrix/data_matrix" data-port-id="data_matrix">
                <g class="io-port">
                    <circle cx="0" cy="0" r="7" class="port-handle" style="fill:rgb(195, 195, 195); stroke:none; stroke-width:1px; "/>
                </g>
                
            </g>
            
        
            </g><g tabindex="-1" class="node output type-Directory " data-connection-id="in/resdir/resdir" transform="matrix(1, 0, 0, 1, 394.68402099609375, 214.53125)" data-id="resdir">
               
                <g class="core" transform="matrix(1, 0, 0, 1, 0, 0)">
                    <circle cx="0" cy="0" r="37" class="outer" style="fill:rgb(48, 48, 48); stroke:rgb(154, 154, 154); stroke-width:2px; "/>
                    <circle cx="0" cy="0" r="27.75" class="inner" style="fill:rgb(195, 195, 195); stroke:none; stroke-width:1px; "/>
                    
                    <svg class="node-icon" xmlns="http://www.w3.org/2000/svg" viewBox="0 0 500.36 365" x="-9" y="-10" width="20" height="20"><title>type_output</title><g id="output"><path d="M291.95,325.23a134,134,0,0,1-15.76,19,132.5,132.5,0,1,1,0-187.38,133.9,133.9,0,0,1,16.16,19.55l35.81-35.81A182.5,182.5,0,1,0,327.73,361Z" transform="translate(0 -68)" style="fill:rgb(48, 48, 48); stroke:rgb(48, 48, 48); stroke-width:3px; "/><g id="circle_source_copy" data-name="circle source copy"><g id="Layer_22_copy" data-name="Layer 22 copy"><g id="Layer_9_copy_5" data-name="Layer 9 copy 5"><polygon points="500.36 182 386.68 295.68 351.32 260.32 404.64 207 210 207 210 157 404.64 157 352.32 104.68 387.68 69.32 500.36 182" style="stroke:rgb(48, 48, 48); fill:rgb(48, 48, 48); "/></g></g></g></g></svg>
                </g>
                
                <text transform="matrix(1 0 0 1 0 67)" class="title label" style="fill:rgb(255, 255, 255); font-size:13px; text-anchor:middle; font-family:sans-serif; ">resdir</text>
                
                
            <g class="port input-port" transform="matrix(1, 0, 0, 1, -37, 4.531193156845207e-15)" data-connection-id="in/resdir/resdir" data-port-id="resdir">
                <g class="io-port">
                    <circle cx="0" cy="0" r="7" class="port-handle" style="fill:rgb(195, 195, 195); stroke:none; stroke-width:1px; "/>
                </g>
                
            </g>
            
        
                
            </g><g tabindex="-1" class="node input type-string " data-connection-id="out/outdir/outdir" transform="matrix(1, 0, 0, 1, 0, 107.265625)" data-id="outdir">
               
                <g class="core" transform="matrix(1, 0, 0, 1, 0, 0)">
                    <circle cx="0" cy="0" r="37" class="outer" style="fill:rgb(48, 48, 48); stroke:rgb(154, 154, 154); stroke-width:2px; "/>
                    <circle cx="0" cy="0" r="27.75" class="inner" style="fill:rgb(195, 195, 195); stroke:none; stroke-width:1px; "/>
                    
                    <svg class="node-icon" xmlns="http://www.w3.org/2000/svg" viewBox="0 0 499 365" x="-11" y="-10" width="20" height="20"><title>type_input</title><g id="input"><path d="M316.5,68a181.72,181.72,0,0,0-114.12,40.09L238,143.72a132.5,132.5,0,1,1,1.16,214.39L203.48,393.8A182.5,182.5,0,1,0,316.5,68Z" transform="translate(0 -68)" style="fill:rgb(48, 48, 48); stroke:rgb(48, 48, 48); stroke-width:3px; "/><g id="Layer_22" data-name="Layer 22"><g id="Layer_9_copy_4" data-name="Layer 9 copy 4"><polygon points="290.36 182 176.68 295.68 141.32 260.32 194.64 207 0 207 0 157 194.64 157 142.32 104.68 177.68 69.32 290.36 182" style="stroke:rgb(48, 48, 48); fill:rgb(48, 48, 48); "/></g></g></g></svg>
                </g>
                
                <text transform="matrix(1 0 0 1 0 67)" class="title label" style="fill:rgb(255, 255, 255); font-size:13px; text-anchor:middle; font-family:sans-serif; ">outdir</text>
                
                
                
            <g class="port output-port" transform="matrix(1, 0, 0, 1, 37, 0)" data-connection-id="out/outdir/outdir" data-port-id="outdir">
                <g class="io-port">
                    <circle cx="0" cy="0" r="7" class="port-handle" style="fill:rgb(195, 195, 195); stroke:none; stroke-width:1px; "/>
                </g>
                
            </g>
            
        
            </g><g tabindex="-1" class="node input type-string " data-connection-id="out/separator/separator" transform="matrix(1, 0, 0, 1, 0, 0)" data-id="separator">
               
                <g class="core" transform="matrix(1, 0, 0, 1, 0, 0)">
                    <circle cx="0" cy="0" r="37" class="outer" style="fill:rgb(48, 48, 48); stroke:rgb(154, 154, 154); stroke-width:2px; "/>
                    <circle cx="0" cy="0" r="27.75" class="inner" style="fill:rgb(195, 195, 195); stroke:none; stroke-width:1px; "/>
                    
                    <svg class="node-icon" xmlns="http://www.w3.org/2000/svg" viewBox="0 0 499 365" x="-11" y="-10" width="20" height="20"><title>type_input</title><g id="input"><path d="M316.5,68a181.72,181.72,0,0,0-114.12,40.09L238,143.72a132.5,132.5,0,1,1,1.16,214.39L203.48,393.8A182.5,182.5,0,1,0,316.5,68Z" transform="translate(0 -68)" style="fill:rgb(48, 48, 48); stroke:rgb(48, 48, 48); stroke-width:3px; "/><g id="Layer_22" data-name="Layer 22"><g id="Layer_9_copy_4" data-name="Layer 9 copy 4"><polygon points="290.36 182 176.68 295.68 141.32 260.32 194.64 207 0 207 0 157 194.64 157 142.32 104.68 177.68 69.32 290.36 182" style="stroke:rgb(48, 48, 48); fill:rgb(48, 48, 48); "/></g></g></g></svg>
                </g>
                
                <text transform="matrix(1 0 0 1 0 67)" class="title label" style="fill:rgb(255, 255, 255); font-size:13px; text-anchor:middle; font-family:sans-serif; ">separator</text>
                
                
                
            <g class="port output-port" transform="matrix(1, 0, 0, 1, 37, 0)" data-connection-id="out/separator/separator" data-port-id="separator">
                <g class="io-port">
                    <circle cx="0" cy="0" r="7" class="port-handle" style="fill:rgb(195, 195, 195); stroke:none; stroke-width:1px; "/>
                </g>
                
            </g>
            
        
            </g><g tabindex="-1" class="node input type-int " data-connection-id="out/index_col/index_col" transform="matrix(1, 0, 0, 1, 0, 214.53125)" data-id="index_col">
               
                <g class="core" transform="matrix(1, 0, 0, 1, 0, 0)">
                    <circle cx="0" cy="0" r="37" class="outer" style="fill:rgb(48, 48, 48); stroke:rgb(154, 154, 154); stroke-width:2px; "/>
                    <circle cx="0" cy="0" r="27.75" class="inner" style="fill:rgb(195, 195, 195); stroke:none; stroke-width:1px; "/>
                    
                    <svg class="node-icon" xmlns="http://www.w3.org/2000/svg" viewBox="0 0 499 365" x="-11" y="-10" width="20" height="20"><title>type_input</title><g id="input"><path d="M316.5,68a181.72,181.72,0,0,0-114.12,40.09L238,143.72a132.5,132.5,0,1,1,1.16,214.39L203.48,393.8A182.5,182.5,0,1,0,316.5,68Z" transform="translate(0 -68)" style="fill:rgb(48, 48, 48); stroke:rgb(48, 48, 48); stroke-width:3px; "/><g id="Layer_22" data-name="Layer 22"><g id="Layer_9_copy_4" data-name="Layer 9 copy 4"><polygon points="290.36 182 176.68 295.68 141.32 260.32 194.64 207 0 207 0 157 194.64 157 142.32 104.68 177.68 69.32 290.36 182" style="stroke:rgb(48, 48, 48); fill:rgb(48, 48, 48); "/></g></g></g></svg>
                </g>
                
                <text transform="matrix(1 0 0 1 0 67)" class="title label" style="fill:rgb(255, 255, 255); font-size:13px; text-anchor:middle; font-family:sans-serif; ">index_col</text>
                
                
                
            <g class="port output-port" transform="matrix(1, 0, 0, 1, 37, 0)" data-connection-id="out/index_col/index_col" data-port-id="index_col">
                <g class="io-port">
                    <circle cx="0" cy="0" r="7" class="port-handle" style="fill:rgb(195, 195, 195); stroke:none; stroke-width:1px; "/>
                </g>
                
            </g>
            
        
            </g><g tabindex="-1" class="node input type-File " data-connection-id="out/gmt_filepath/gmt_filepath" transform="matrix(1, 0, 0, 1, 0, 321.796875)" data-id="gmt_filepath">
               
                <g class="core" transform="matrix(1, 0, 0, 1, 0, 0)">
                    <circle cx="0" cy="0" r="37" class="outer" style="fill:rgb(48, 48, 48); stroke:rgb(154, 154, 154); stroke-width:2px; "/>
                    <circle cx="0" cy="0" r="27.75" class="inner" style="fill:rgb(195, 195, 195); stroke:none; stroke-width:1px; "/>
                    
                    <svg class="node-icon" xmlns="http://www.w3.org/2000/svg" viewBox="0 0 499 462.86" y="-10" x="-11" width="20" height="20"><title>file_input</title><path d="M386.06,0H175V58.29l50,50V50H337.81V163.38h25l86.19.24V412.86H225V353.71l-50,50v59.15H499V112.94Zm1.75,113.45v-41l41.1,41.1Z" style="fill:rgb(48, 48, 48); stroke:rgb(48, 48, 48); stroke-width:3px; "/><polygon points="387.81 1.06 387.81 1.75 387.12 1.06 387.81 1.06" style="stroke:rgb(48, 48, 48); fill:rgb(48, 48, 48); "/><polygon points="290.36 231 176.68 344.68 141.32 309.32 194.64 256 0 256 0 206 194.64 206 142.32 153.68 177.68 118.32 290.36 231" style="stroke:rgb(48, 48, 48); fill:rgb(48, 48, 48); "/></svg>
                </g>
                
                <text transform="matrix(1 0 0 1 0 67)" class="title label" style="fill:rgb(255, 255, 255); font-size:13px; text-anchor:middle; font-family:sans-serif; ">gmt_filepath</text>
                
                
                
            <g class="port output-port" transform="matrix(1, 0, 0, 1, 37, 0)" data-connection-id="out/gmt_filepath/gmt_filepath" data-port-id="gmt_filepath">
                <g class="io-port">
                    <circle cx="0" cy="0" r="7" class="port-handle" style="fill:rgb(195, 195, 195); stroke:none; stroke-width:1px; "/>
                </g>
                
            </g>
            
        
            </g><g tabindex="-1" class="node step  " data-connection-id="cosifer" transform="matrix(1, 0, 0, 1, 151, 186.53125)" data-id="cosifer">
               
                <g class="core" transform="matrix(1, 0, 0, 1, 0, 0)">
                    <circle cx="0" cy="0" r="65" class="outer" style="fill:rgb(48, 48, 48); stroke:rgb(154, 154, 154); stroke-width:2px; "/>
                    <circle cx="0" cy="0" r="48.75" class="inner" style="fill:rgb(17, 167, 167); stroke:none; stroke-width:1px; "/>
                    
                    <svg class="node-icon" xmlns="http://www.w3.org/2000/svg" viewBox="0 0 398.39 397.78" x="-10" y="-8" width="20" height="15"><title>tool2</title><polygon points="38.77 397.57 0 366 136.15 198.78 0 31.57 38.77 0 200.63 198.78 38.77 397.57" style="stroke:rgb(48, 48, 48); fill:rgb(48, 48, 48); "/><rect x="198.39" y="347.78" width="200" height="50" style="fill:rgb(48, 48, 48); stroke:rgb(48, 48, 48); stroke-width:3px; "/></svg>
                </g>
                
                <text transform="matrix(1 0 0 1 0 95)" class="title label" style="fill:rgb(255, 255, 255); font-size:13px; text-anchor:middle; font-family:sans-serif; ">cosifer</text>
                
                
            <g class="port input-port" transform="matrix(0.9999999999999999, 0, 0, 0.9999999999999999, -44.605702264388945, -47.279290661987375)" data-connection-id="in/cosifer/separator" data-port-id="separator">
                <g class="io-port">
                    <circle cx="0" cy="0" r="7" class="port-handle" style="fill:rgb(195, 195, 195); stroke:none; stroke-width:1px; "/>
                </g>
                
            </g>
            
        
            <g class="port input-port" transform="matrix(1, 0, 0, 1, -59.68404923267005, -25.74517949427071)" data-connection-id="in/cosifer/outdir" data-port-id="outdir">
                <g class="io-port">
                    <circle cx="0" cy="0" r="7" class="port-handle" style="fill:rgb(195, 195, 195); stroke:none; stroke-width:1px; "/>
                </g>
                
            </g>
            
        
            <g class="port input-port" transform="matrix(1, 0, 0, 1, -65, 7.960204194457796e-15)" data-connection-id="in/cosifer/index_col" data-port-id="index_col">
                <g class="io-port">
                    <circle cx="0" cy="0" r="7" class="port-handle" style="fill:rgb(195, 195, 195); stroke:none; stroke-width:1px; "/>
                </g>
                
            </g>
            
        
            <g class="port input-port" transform="matrix(0.9999999999999999, 0, 0, 0.9999999999999999, -59.68404923267004, 25.745179494270726)" data-connection-id="in/cosifer/gmt_filepath" data-port-id="gmt_filepath">
                <g class="io-port">
                    <circle cx="0" cy="0" r="7" class="port-handle" style="fill:rgb(195, 195, 195); stroke:none; stroke-width:1px; "/>
                </g>
                
            </g>
            
        
            <g class="port input-port" transform="matrix(1, 0, 0, 1, -44.60570226438894, 47.27929066198739)" data-connection-id="in/cosifer/data_matrix" data-port-id="data_matrix">
                <g class="io-port">
                    <circle cx="0" cy="0" r="7" class="port-handle" style="fill:rgb(195, 195, 195); stroke:none; stroke-width:1px; "/>
                </g>
                
            </g>
            
        
                
            <g class="port output-port" transform="matrix(1, 0, 0, 1, 65, 0)" data-connection-id="out/cosifer/resdir" data-port-id="resdir">
                <g class="io-port">
                    <circle cx="0" cy="0" r="7" class="port-handle" style="fill:rgb(195, 195, 195); stroke:none; stroke-width:1px; "/>
                </g>
                
            </g>
            
        
            </g></g>
        </svg>